<svg width="1600" height="1000" viewBox="0 0 1600 1000" fill="none" xmlns="http://www.w3.org/2000/svg">
  <defs>
    <linearGradient id="sukoon-gradient" x1="140" y1="110" x2="1460" y2="890" gradientUnits="userSpaceOnUse">
      <stop offset="0%" stop-color="#34D399" stop-opacity="0.26"/>
      <stop offset="100%" stop-color="#0F766E" stop-opacity="0.92"/>
    </linearGradient>
  </defs>
  <rect width="1600" height="1000" fill="#03120F"/>
  <rect x="80" y="80" width="1440" height="840" rx="36" fill="url(#sukoon-gradient)"/>
  <circle cx="1220" cy="260" r="116" fill="#D1FAE5" fill-opacity="0.14"/>
  <circle cx="1266" cy="248" r="96" fill="#03120F"/>
  <rect x="150" y="180" width="610" height="300" rx="24" fill="#03120F" fill-opacity="0.62"/>
  <rect x="150" y="540" width="920" height="180" rx="24" fill="#03120F" fill-opacity="0.5"/>
  <rect x="820" y="220" width="610" height="500" rx="24" fill="#03120F" fill-opacity="0.42"/>
  <rect x="900" y="320" width="450" height="24" rx="12" fill="#D1FAE5" fill-opacity="0.82"/>
  <rect x="900" y="378" width="370" height="18" rx="9" fill="#A7F3D0" fill-opacity="0.78"/>
  <rect x="900" y="438" width="420" height="18" rx="9" fill="#A7F3D0" fill-opacity="0.55"/>
  <rect x="900" y="498" width="300" height="18" rx="9" fill="#A7F3D0" fill-opacity="0.55"/>
  <text x="180" y="300" fill="#ECFDF5" font-size="92" font-family="Segoe UI, Arial, sans-serif" font-weight="700">Sukoon</text>
  <text x="180" y="376" fill="#A7F3D0" font-size="34" font-family="Segoe UI, Arial, sans-serif">Islamic mobile app case study preview</text>
  <text x="180" y="630" fill="#D1FAE5" font-size="34" font-family="Segoe UI, Arial, sans-serif">Duas, adhkar, reminders, reflection, and daily faith routines</text>
</svg>
